<svg viewBox="0 0 576 512" xmlns="http://www.w3.org/2000/svg"><path d="M288 0c-66.3 0-120 53.73-120 120 0 48.38 16.86 61.9 107.7 193.5 5.957 8.604 18.69 8.604 24.65 0C391.1 181.9 408 168.4 408 120 408 53.73 354.3 0 288 0zm0 176c-26.5 0-48-21.5-48-48s21.5-48 48-48c26.48 0 48 21.53 48 48s-21.5 48-48 48zM10.06 227.6C3.984 230 0 235.9 0 242.4v253.5c0 11.32 11.49 19.04 22 14.84L160 448V201.4c-7.5-12.6-12.8-23.4-16.6-33.9L10.06 227.6zM326.6 331.8c-8.7 12.6-23.2 20.2-38.6 20.2a47.008 47.008 0 0 1-38.66-20.28C233.2 308.3 196.9 256.6 192 249.6v197.5L384 512V249.6c-4.9 7-41.2 58.7-57.4 82.2zm227.5-170.6L416 224v288l149.9-67.59c6.1-3.31 10.1-8.31 10.1-14.81V176c0-11.3-11.4-19.9-21.9-14.8z" fill="#ffffff" class="fill-000000"></path></svg>